<svg xmlns="http://www.w3.org/2000/svg" viewBox="0 0 678.71 297.31"><defs><style>.cls-1{fill:#ed2124;}.cls-2{fill:#231f20;}.cls-3{fill:#fff;}</style></defs><title>text</title><g id="Layer_2" data-name="Layer 2"><g id="Layer_1-2" data-name="Layer 1"><rect class="cls-1" y="147.7" width="603.2" height="74.8"/><rect class="cls-1" x="472.69" y="222.51" width="206.01" height="74.8"/><path class="cls-2" d="M19.24,55,6.24,1H22.88c3.65,20.61,4.89,29.6,5.52,38.17h.25C30.87,27.46,34.14,13.64,36.89,1H51c2.42,10.92,6,25.92,7.88,37.52h.25C60.42,27.32,64,9.31,65.3,1H80.5L66.85,55H50.67C48.29,43.78,45.16,31,43.18,20.56H43c-1.87,10.2-5.25,24-7.58,34.42Zm135-54V43.26h25.44L177.92,55H138.33V1Zm52.22,55c-17.68,0-26.22-11.93-26.22-27.59,0-15.28,8.44-28.39,27-28.39C223,0,230.26,9.22,231.32,18.56h-15.7c-.72-3.89-3-7.45-8.81-7.45-7.69,0-10.31,7.3-10.31,16.72,0,8.56,2.18,17,10.49,17,6.28,0,8-4.57,8.72-7.62h15.77C229.5,48.51,221.22,56,206.41,56Zm58,0c-18.16,0-26.93-12.69-26.93-28,0-15.53,9.62-28,27.74-28,17,0,26.87,11.8,26.87,27.94C292.09,43.21,282.89,56,264.41,56Zm.49-11.39c8.23,0,10.94-7.32,10.94-16.52,0-9.84-2.88-16.68-11.14-16.68-7.69,0-10.91,6.35-10.91,16.39S257.08,44.59,264.9,44.59Zm81-7.22c0-8.44.18-19.31.42-25.72h-.42C343.61,23.23,340,39.26,336,55H323.37c-3.1-15.25-6.64-31.31-8.75-43.32h-.47c.44,6.35.73,16.89.73,26.13V55H300.8V1h22.77c2.66,10.92,5.77,26.76,7,34.74h.27c1.39-8.68,5-23,8.13-34.74h22.12V55h-15.2Zm66.85-4.23H388.13V43.26h27.44L413.81,55h-40.9V1h40.85V12.73H388.13v8.68h24.59Zm-286,0H102.11V43.26h27.44L127.79,55H86.89V1h40.85V12.73H102.11v8.68h24.58ZM437.46,12.73V1H484V12.73H468.72V55H452.88V12.73ZM515,56c-18.16,0-26.93-12.69-26.93-28,0-15.53,9.62-28,27.74-28,17,0,26.87,11.8,26.87,27.94C542.67,43.21,533.47,56,515,56Zm.49-11.39c8.23,0,10.94-7.32,10.94-16.52,0-9.84-2.88-16.68-11.14-16.68-7.69,0-10.91,6.35-10.91,16.39S507.66,44.59,515.48,44.59Z"/><path class="cls-2" d="M11,78.76H26.74v21.91c3.53-4.92,11.5-14.8,16.82-21.91H62.29L42.46,100.87,63,132.73H44.44L31.51,111.08,26.74,116v16.73H11Zm70.78,0v33.18c0,7.73,3.81,10.38,8.61,10.38,5.19,0,8.2-3.17,8.2-10.38V78.76h15.89v31.59c0,17.93-10.61,23.38-24.36,23.38C75.9,133.73,66,128,66,110.42V78.76Zm73.34,54-18.47-54h16.8l6.66,23.18c2.11,7.2,3.34,12.19,4.57,18.22H165a165.84,165.84,0,0,1,4.66-18.06l6.88-23.34H192.7l-18.89,54Zm59-54v54H198.27v-54Zm27.17,33.58v20.39H225.94v-54h26.75c12.71,0,18.86,6.8,18.86,14.94,0,7.46-4.36,11.27-8.1,12.8,3.4,1.19,7,4.79,7,13.93v2.25c0,3.36.11,7.71.7,10H256.11c-.91-2.32-1.15-6.24-1.15-11.78v-1.4c0-4.66-1.11-7.21-8.09-7.21Zm0-11h7.31c5.27,0,7.19-2.19,7.19-5.82s-2.28-5.71-7.11-5.71H241.3Zm33.35-10.83V78.76h46.56V90.48H305.92v42.25H290.08V90.48Zm69.57-11.72v33.18c0,7.73,3.81,10.38,8.6,10.38,5.2,0,8.21-3.17,8.21-10.38V78.76h15.89v31.59c0,17.93-10.61,23.38-24.36,23.38-14.26,0-24.17-5.77-24.17-23.31V78.76Zm56.27,43.47-3.12,10.5H382l17.06-54h20.47l17.74,54H420.71l-3.28-10.5Zm14.17-11.72c-2.54-8.48-4.61-16-5.84-21.28h-.21c-1.25,5.81-3.31,13.52-5.5,21.28Zm45.42-31.75V121h25.44l-1.71,11.72H444.22v-54Z"/><path class="cls-3" d="M11,210.48v-54H30c5.68,12.16,13.9,28.58,16.17,35.23h.26c-.6-5.61-.73-15.14-.73-23.75V156.51H60.07v54H42c-4.58-9.77-14.34-30-16.88-37.14H25c.5,5.07.55,15.52.55,25v12.12ZM85,200,81.9,210.48H66.49l17.06-54H104l17.74,54H105.24L102,200Zm14.17-11.73c-2.54-8.48-4.61-16-5.84-21.28h-.21c-1.25,5.82-3.32,13.52-5.5,21.28Zm19.26-20V156.51H165v11.72h-15.3v42.25H133.88V168.23Zm69.67-11.72v54H172.26v-54Zm36,55c-18.15,0-26.93-12.69-26.93-28,0-15.53,9.63-28,27.74-28,17,0,26.87,11.79,26.87,27.94C251.8,198.72,242.61,211.49,224.12,211.49Zm.5-11.4c8.22,0,10.93-7.31,10.93-16.51,0-9.85-2.88-16.68-11.14-16.68-7.68,0-10.91,6.34-10.91,16.39S216.79,200.09,224.62,200.09Zm36.21,10.39v-54h18.92c5.68,12.16,13.91,28.58,16.17,35.23h.27c-.6-5.61-.74-15.14-.74-23.75V156.51h14.42v54h-18c-4.58-9.77-14.35-30-16.88-37.14h-.21c.5,5.07.54,15.52.54,25v12.12Zm74-10.49-3.13,10.49h-15.4l17.06-54h20.47l17.73,54H355L351.76,200ZM349,188.26c-2.53-8.48-4.61-16-5.83-21.28h-.22c-1.25,5.82-3.31,13.52-5.5,21.28Zm45.44-31.75v42.25h25.44l-1.72,11.72H378.56v-54Zm39.78,0h23.19c17.18,0,27.14,10.87,27.14,26.39s-9.7,27.58-27.38,27.58H434.2ZM450,199h6.06c8.58,0,12.1-6,12.1-16.13,0-8.94-3.28-14.94-11.91-14.94H450Zm56.82,1-3.12,10.49H488.33l17.06-54h20.47l17.73,54H527.08L523.8,200ZM521,188.26c-2.54-8.48-4.62-16-5.84-21.28H515c-1.25,5.82-3.32,13.52-5.5,21.28Zm36.32,22.22V191.79a3.37,3.37,0,0,0-.55-2l-18.47-33.23H556.2c3.44,7.61,7.31,16.37,9.81,22.54,2.18-5.91,6.74-15.6,9.92-22.54h16.49l-18.71,33.16a3.5,3.5,0,0,0-.49,2v18.79Z"/><path class="cls-2" d="M34.83,289.24c-17.68,0-26.22-11.93-26.22-27.6,0-15.27,8.44-28.38,27-28.38,15.87,0,23.09,9.22,24.15,18.56H44c-.72-3.9-3-7.45-8.81-7.45-7.69,0-10.31,7.3-10.31,16.72,0,8.56,2.18,17,10.48,17,6.29,0,8.05-4.57,8.73-7.62H59.9C57.92,281.77,49.64,289.24,34.83,289.24Zm73.07-34.57v11.72H83.31v10.12h27.45L109,288.24H68.09v-54h40.85V246H83.31v8.69Zm25.4,13.17v20.4H117.94v-54h26.75c12.71,0,18.86,6.81,18.86,15,0,7.45-4.36,11.26-8.1,12.8,3.4,1.19,7,4.79,7,13.93v2.25c0,3.35.11,7.71.7,10.05H148.11c-.91-2.33-1.15-6.24-1.15-11.79v-1.39c0-4.66-1.11-7.22-8.09-7.22Zm0-11h7.31c5.27,0,7.19-2.19,7.19-5.82s-2.28-5.72-7.11-5.72H133.3Zm78.84-2.15v11.72H187.56v10.12H215l-1.76,11.73h-40.9v-54h40.85V246H187.56v8.69Zm55.19,16c0-8.44.19-19.31.42-25.72h-.42c-2.25,11.58-5.89,27.6-9.83,43.33H244.83c-3.1-15.25-6.64-31.31-8.74-43.32h-.48c.45,6.35.74,16.88.74,26.13v17.19H222.27v-54H245c2.66,10.92,5.78,26.76,7,34.73h.27c1.38-8.68,5-23,8.12-34.73h22.12v54h-15.2Zm51.08,18.61c-18.15,0-26.93-12.69-26.93-28,0-15.54,9.63-28,27.74-28,17,0,26.87,11.8,26.87,27.94C346.09,276.47,336.9,289.24,318.41,289.24Zm.5-11.4c8.22,0,10.93-7.31,10.93-16.51,0-9.85-2.88-16.68-11.14-16.68-7.68,0-10.91,6.35-10.91,16.39S311.08,277.84,318.91,277.84Zm36.21,10.4v-54H374c5.68,12.16,13.91,28.58,16.17,35.23h.27c-.6-5.6-.74-15.14-.74-23.75V234.26h14.42v54h-18c-4.58-9.78-14.35-30-16.88-37.15H369c.5,5.08.54,15.52.54,25v12.13Zm73.3,0v-18.7a3.37,3.37,0,0,0-.55-2.05L409.4,234.26h17.86c3.45,7.61,7.32,16.37,9.81,22.54,2.19-5.91,6.74-15.6,9.92-22.54h16.5l-18.71,33.16a3.49,3.49,0,0,0-.5,2v18.8Z"/><path class="cls-3" d="M482.78,288.24v-1.31c0-10.7,4.94-17.58,14.63-24.52,7.47-5.34,9.41-7,9.41-10.86,0-3.62-1.57-5.54-4.83-5.54-3.95,0-5.22,2.65-5.65,6.91H482.27c.54-8.1,5.26-17.36,20.33-17.36,14.57,0,19.61,7.94,19.61,16.25,0,7-2.85,10.85-12.39,17.16-5.39,3.6-7.83,6-8.78,7.89h22.75L522,288.24Zm89-26.13c0,14.72-5.31,27.12-21.65,27.12-16.08,0-21.57-12.28-21.57-26.81,0-14.17,5.66-26.86,21.78-26.86C565.75,235.56,571.79,247.06,571.79,262.11Zm-27.62.1c0,10.81.85,16.39,6.13,16.39s5.85-5.47,5.85-16.36c0-11.18-.91-16.05-5.8-16.05C545.66,246.19,544.17,250.45,544.17,262.21Zm34.47,26v-1.31c0-10.7,4.94-17.58,14.63-24.52,7.46-5.34,9.41-7,9.41-10.86,0-3.62-1.57-5.54-4.83-5.54-4,0-5.22,2.65-5.65,6.91H578.13c.54-8.1,5.26-17.36,20.33-17.36,14.57,0,19.61,7.94,19.61,16.25,0,7-2.85,10.85-12.39,17.16-5.39,3.6-7.83,6-8.78,7.89h22.75l-1.79,11.38Zm89-26.13c0,14.72-5.31,27.12-21.65,27.12-16.08,0-21.57-12.28-21.57-26.81,0-14.17,5.66-26.86,21.78-26.86C661.61,235.56,667.65,247.06,667.65,262.11Zm-27.62.1c0,10.81.85,16.39,6.13,16.39s5.84-5.47,5.84-16.36c0-11.18-.9-16.05-5.79-16.05C641.52,246.19,640,250.45,640,262.21Z"/></g></g></svg>